# xmcd CD database file
#
# Track frame offsets:
#	150
#	16007
#	37667
#	52670
#	76806
#	97205
#	122203
#	144488
#	165872
#	189973
#	209485
#	230524
#	252815
#	276019
#	296257
#	316267
#	336269
#
# Disc length: 4755 seconds
#
# Revision: 2
# Processed by: cddbd v1.5.1PL2 Copyright (c) Steve Scherf et al.
# Submitted via: CDex 1.51
#
DISCID=d8129111
DTITLE=Arne Kopfermann - With All My Heart
DYEAR=2006
DGENRE=Christian Rock
TTITLE0=Don´t You know
TTITLE1=Here I Am, Send Me
TTITLE2=You Are My All In All
TTITLE3=On A Rugged Cross
TTITLE4=On Your Holy Altar
TTITLE5=Glory In The Son
TTITLE6=With All My Heart
TTITLE7=Glorious God
TTITLE8=So Come, Lord
TTITLE9=Night And Day
TTITLE10=Let The Words
TTITLE11=Over The Sea
TTITLE12=All Of Creation Sings
TTITLE13=Holy One
TTITLE14=Forever Secure
TTITLE15=99
TTITLE16=Lift Up Your Voice
EXTD=www.gerth.de, Best.-Nr. 946340 YEAR: 2006
EXTT0=
EXTT1=
EXTT2=
EXTT3=
EXTT4=
EXTT5=
EXTT6=
EXTT7=
EXTT8=
EXTT9=
EXTT10=
EXTT11=
EXTT12=
EXTT13=
EXTT14=
EXTT15=
EXTT16=
PLAYORDER=
